<?xml version="1.0" standalone="no"?>
<!DOCTYPE svg PUBLIC "-//W3C//DTD SVG 20010904//EN"
 "http://www.w3.org/TR/2001/REC-SVG-20010904/DTD/svg10.dtd">
<svg version="1.0" xmlns="http://www.w3.org/2000/svg"
 width="700.000000pt" height="700.000000pt" viewBox="0 0 700.000000 700.000000"
 preserveAspectRatio="xMidYMid meet">
<metadata>
Created by potrace 1.11, written by Peter Selinger 2001-2013
</metadata>
<g transform="translate(0.000000,700.000000) scale(0.100000,-0.100000)"
fill="#000000" stroke="none">
<path d="M2259 6980 c-473 -96 -833 -452 -963 -952 -36 -135 -37 -147 -41
-333 -6 -276 32 -450 155 -700 88 -179 207 -352 357 -514 29 -32 38 -49 31
-58 -5 -6 -90 -74 -190 -150 -737 -565 -716 -548 -767 -643 -63 -118 -60 -20
-60 -1685 -1 -1661 -4 -1571 56 -1689 46 -91 151 -179 268 -227 52 -21 179
-24 835 -24 664 1 709 2 765 20 87 28 143 62 205 125 61 61 107 144 126 228 9
39 13 214 13 667 0 678 -1 662 62 688 23 9 124 12 390 12 346 0 359 -1 386
-21 54 -40 53 -24 53 -680 0 -335 2 -626 6 -645 14 -81 68 -189 122 -246 53
-54 129 -100 212 -128 52 -18 101 -19 790 -19 799 0 769 -2 884 56 105 53 202
175 237 298 10 36 13 360 14 1570 2 1446 1 1528 -17 1592 -10 37 -27 85 -39
107 -19 37 -92 128 -114 143 -8 5 -146 111 -190 145 -5 5 -57 45 -115 89 -108
83 -177 136 -410 313 -74 57 -136 106 -137 109 -2 4 13 25 33 47 136 153 266
336 341 480 258 497 235 1059 -61 1505 -182 272 -437 447 -761 519 -110 24
-365 27 -470 5 -284 -60 -521 -209 -717 -451 -28 -35 -54 -63 -57 -63 -3 0
-17 16 -30 35 -37 55 -199 215 -275 272 -130 97 -284 166 -454 203 -112 25
-351 24 -473 0z m-149 -2850 c8 -8 60 -55 115 -105 55 -49 107 -96 116 -105 8
-8 40 -35 69 -60 30 -25 61 -52 70 -60 9 -8 43 -37 75 -65 33 -27 74 -62 90
-76 17 -15 95 -82 175 -150 80 -68 150 -128 156 -134 6 -5 24 -21 40 -34 51
-43 159 -136 164 -141 3 -4 47 -41 97 -83 120 -99 183 -118 288 -89 49 14 89
39 150 93 38 33 132 116 171 149 16 14 180 154 364 312 184 157 344 294 355
304 11 11 61 55 110 99 49 44 114 103 144 131 l55 52 55 -42 c31 -22 65 -48
76 -58 24 -20 448 -344 525 -402 30 -22 57 -43 60 -47 3 -3 41 -32 85 -66 44
-33 89 -70 100 -83 20 -22 20 -38 23 -1514 2 -1404 1 -1493 -15 -1526 -10 -19
-29 -40 -43 -47 -20 -10 -177 -12 -721 -10 -681 2 -697 2 -719 22 -12 11 -26
30 -31 43 -5 12 -9 300 -10 640 0 502 -3 627 -15 671 -46 174 -195 314 -368
346 -40 7 -196 11 -456 10 -377 -2 -398 -3 -454 -24 -145 -52 -245 -152 -297
-297 -21 -58 -22 -75 -23 -699 -2 -707 1 -673 -66 -704 -32 -14 -106 -16 -695
-14 -363 1 -672 2 -687 2 -15 1 -42 14 -60 30 l-33 29 0 1512 0 1511 41 37
c22 20 72 61 110 89 38 29 132 101 209 161 77 59 187 144 244 187 58 44 152
117 210 161 111 85 110 85 151 44z"/>
</g>
</svg>
