<?xml version="1.0" standalone="no"?>
<!DOCTYPE svg PUBLIC "-//W3C//DTD SVG 20010904//EN"
 "http://www.w3.org/TR/2001/REC-SVG-20010904/DTD/svg10.dtd">
<svg version="1.0" xmlns="http://www.w3.org/2000/svg"
 width="704.000000pt" height="704.000000pt" viewBox="0 0 704.000000 704.000000"
 preserveAspectRatio="xMidYMid meet">
<metadata>
Created by potrace 1.11, written by Peter Selinger 2001-2013
</metadata>
<g transform="translate(0.000000,704.000000) scale(0.100000,-0.100000)"
fill="#000000" stroke="none">
<path d="M1898 6715 c-2 -2 -25 -6 -53 -9 -27 -3 -63 -8 -80 -11 -16 -2 -43
-6 -60 -9 -25 -4 -135 -30 -170 -40 -5 -2 -23 -6 -40 -10 -134 -34 -380 -146
-520 -236 -16 -11 -37 -23 -45 -27 -8 -4 -26 -17 -40 -30 -14 -13 -28 -23 -32
-23 -8 0 -22 -11 -137 -110 -91 -78 -126 -113 -207 -205 -67 -77 -183 -231
-192 -255 -3 -8 -11 -22 -18 -30 -20 -23 -140 -261 -154 -305 -7 -22 -17 -46
-23 -52 -5 -7 -7 -13 -4 -13 3 0 -1 -17 -10 -37 -9 -21 -20 -54 -25 -73 -5
-19 -11 -42 -13 -50 -11 -38 -37 -147 -40 -170 -2 -14 -6 -41 -9 -60 -19 -108
-24 -194 -22 -365 1 -105 5 -196 9 -201 3 -6 9 -40 12 -74 4 -35 8 -67 10 -70
2 -4 7 -20 9 -36 32 -174 107 -378 207 -565 88 -164 182 -293 322 -447 37 -39
67 -78 68 -85 1 -6 1 -25 0 -42 0 -16 -1 -40 -1 -52 0 -13 0 -40 0 -60 0 -78
0 -99 3 -131 2 -18 0 -35 -5 -38 -5 -3 -5 -10 -1 -17 9 -15 10 -98 0 -104 -4
-2 -4 -9 0 -16 9 -15 10 -98 0 -104 -4 -2 -4 -9 0 -16 9 -15 10 -98 0 -104 -4
-2 -4 -9 0 -16 9 -15 10 -98 0 -104 -4 -2 -4 -9 0 -16 9 -15 10 -98 0 -104 -4
-2 -4 -9 0 -15 9 -16 10 -138 0 -138 -4 0 -4 -8 1 -17 4 -10 6 -63 5 -118 -4
-117 -3 -104 -3 -180 0 -33 1 -72 0 -87 0 -16 0 -53 0 -83 0 -30 0 -66 0 -80
0 -14 0 -51 0 -82 0 -131 0 -146 6 -154 3 -5 0 -9 -6 -9 -6 0 -8 -5 -4 -11 10
-16 11 -58 2 -91 -3 -16 -4 -28 0 -28 9 0 7 -94 -2 -109 -4 -6 -4 -11 1 -11 9
0 9 -93 -1 -108 -3 -6 -3 -13 1 -15 10 -6 9 -89 0 -104 -4 -7 -4 -14 0 -16 10
-6 9 -89 0 -104 -4 -7 -4 -14 0 -16 10 -6 9 -89 0 -104 -4 -7 -4 -14 0 -16 5
-3 8 -46 7 -96 l-1 -91 2886 2 2886 3 0 1410 0 1410 60 61 c33 33 74 77 90 98
17 21 40 49 53 63 12 13 22 27 22 32 0 4 8 16 18 27 29 34 62 83 62 94 0 5 5
10 10 10 6 0 10 4 10 10 0 5 15 33 33 62 61 97 145 287 186 417 10 34 17 61
14 61 -3 0 -1 6 5 13 5 6 13 28 16 47 3 19 15 73 25 120 18 76 20 118 17 405
-1 176 -6 334 -10 350 -4 17 -16 66 -26 110 -24 99 -59 211 -95 302 -32 81
-116 247 -127 251 -4 2 -8 9 -8 16 0 7 -14 32 -30 54 -17 23 -30 44 -30 47 0
6 -41 66 -50 75 -3 3 -27 33 -54 68 -71 93 -190 215 -291 299 -124 103 -124
103 -134 103 -5 0 -11 4 -13 9 -4 12 -140 96 -243 150 -100 53 -258 116 -370
147 -72 20 -125 34 -147 39 -16 3 -39 7 -53 10 -112 22 -201 29 -380 29 -190
0 -295 -6 -295 -16 0 -3 -8 -5 -17 -4 -10 2 -35 -1 -55 -6 -21 -4 -55 -11 -76
-14 -20 -3 -40 -8 -45 -11 -4 -2 -20 -7 -35 -9 -43 -8 -140 -39 -237 -77 -100
-39 -298 -136 -303 -149 -2 -4 -8 -8 -13 -8 -23 0 -225 -149 -339 -249 -32
-28 -35 -29 -51 -13 -9 9 -38 36 -65 58 -239 202 -508 345 -804 428 -74 21
-103 28 -180 42 -8 2 -31 6 -50 10 -19 4 -48 8 -65 10 -41 5 -443 13 -447 9z"/>
</g>
</svg>
